<?xml version="1.0" standalone="no"?>
<!DOCTYPE svg PUBLIC "-//W3C//DTD SVG 20010904//EN"
 "http://www.w3.org/TR/2001/REC-SVG-20010904/DTD/svg10.dtd">
<svg version="1.0" xmlns="http://www.w3.org/2000/svg"
 width="260.000000pt" height="260.000000pt" viewBox="0 0 260.000000 260.000000"
 preserveAspectRatio="xMidYMid meet">
<metadata>
Created by potrace 1.11, written by Peter Selinger 2001-2013
</metadata>
<g transform="translate(0.000000,260.000000) scale(0.100000,-0.100000)"
fill="#000000" stroke="none">
<path d="M1265 2351 c-80 -34 -152 -226 -196 -521 -26 -175 -37 -615 -20 -809
7 -73 10 -136 7 -138 -3 -3 -72 33 -153 80 -259 149 -328 189 -332 193 -2 2
-25 83 -52 181 -26 98 -54 180 -60 182 -40 13 -55 47 -68 154 -7 59 -17 107
-22 107 -11 0 -12 -560 -1 -575 4 -6 46 -33 94 -60 l88 -50 0 -280 0 -280 147
-85 c81 -47 151 -85 155 -85 4 0 30 39 57 88 l49 87 -109 61 -109 61 0 159 c0
88 2 159 5 159 3 0 53 -28 112 -63 60 -35 132 -77 162 -94 l54 -31 23 -113
c62 -307 169 -444 267 -341 51 54 104 189 133 336 8 45 19 90 24 102 6 16 174
121 323 201 4 2 7 -68 7 -156 l0 -160 -105 -58 c-58 -32 -105 -62 -105 -66 0
-6 86 -164 96 -176 2 -2 56 28 121 66 65 39 133 78 151 89 l32 18 0 281 0 280
95 53 95 53 0 291 c0 164 -4 288 -9 282 -4 -5 -14 -49 -20 -99 -17 -125 -19
-132 -51 -145 -26 -11 -31 -24 -76 -193 l-49 -181 -150 -87 c-82 -47 -193
-111 -245 -141 -52 -31 -96 -55 -98 -53 -1 1 3 49 9 106 15 138 15 555 0 699
-47 462 -155 722 -276 671z m11 -1598 c-2 -2 -25 9 -52 25 l-49 28 -6 80 c-42
520 3 1210 88 1366 17 32 18 10 21 -731 1 -420 0 -766 -2 -768z m78 1459 c60
-184 93 -586 83 -1007 -4 -143 -10 -291 -13 -328 -7 -66 -8 -69 -46 -93 -22
-14 -46 -28 -54 -31 -12 -4 -14 102 -14 762 0 668 2 766 14 755 8 -6 22 -33
30 -58z m-114 -1517 l40 -25 0 -145 c0 -80 -2 -145 -5 -145 -11 0 -37 66 -55
138 -21 86 -36 202 -26 202 3 0 24 -11 46 -25z m158 -42 c-10 -90 -45 -222
-66 -253 -16 -24 -17 -20 -20 115 -1 76 0 145 2 152 4 10 71 51 87 53 3 0 2
-30 -3 -67z"/>
<path d="M1210 676 c0 -23 39 -208 45 -214 3 -3 5 42 5 100 0 102 -1 105 -25
116 -20 9 -25 9 -25 -2z"/>
<path d="M1353 675 c-22 -15 -23 -23 -22 -123 0 -120 8 -115 34 23 20 107 18
122 -12 100z"/>
<path d="M549 1992 c-45 -37 -16 -122 41 -122 31 0 70 39 70 70 0 19 -9 36
-26 49 -33 26 -55 26 -85 3z"/>
<path d="M1955 1985 c-14 -13 -25 -33 -25 -45 0 -11 11 -32 25 -45 13 -14 34
-25 45 -25 12 0 32 11 45 25 14 13 25 34 25 45 0 12 -11 32 -25 45 -13 14 -33
25 -45 25 -11 0 -32 -11 -45 -25z"/>
<path d="M541 1686 c-48 -27 -66 -100 -35 -145 9 -13 32 -30 51 -38 31 -12 38
-12 71 4 23 11 44 32 55 55 16 33 16 40 4 70 -25 60 -91 85 -146 54z"/>
<path d="M1951 1686 c-48 -27 -66 -100 -35 -145 9 -13 32 -29 50 -37 29 -12
39 -12 68 0 42 18 66 51 66 94 0 44 -14 68 -50 87 -35 18 -67 19 -99 1z"/>
</g>
</svg>
